<svg version="1.1" id="Layer_1" xmlns="http://www.w3.org/2000/svg" xmlns:xlink="http://www.w3.org/1999/xlink" x="0px" y="0px"
	 width="100%" viewBox="0 0 396 587" enable-background="new 0 0 396 587" xml:space="preserve">
<path fill="#FEFEFD" opacity="1.000000" stroke="none" 
	d="
M397.000000,176.000000 
	C397.000000,313.666626 397.000000,450.833252 397.000000,587.999878 
	C265.000061,587.999939 133.000122,587.999939 1.000144,588.000000 
	C1.000096,392.333435 1.000096,196.666885 1.000048,1.000249 
	C132.999863,1.000166 264.999725,1.000166 396.999786,1.000083 
	C397.000000,59.166668 397.000000,117.333336 397.000000,176.000000 
M272.163269,543.509277 
	C272.364838,543.755432 272.609833,543.945618 273.037476,544.787598 
	C274.703461,548.533875 276.369446,552.280090 278.064331,556.771606 
	C277.934540,557.503662 277.804749,558.235718 276.938995,559.016663 
	C274.619293,561.224854 272.545502,569.500122 273.868622,571.539368 
	C274.183716,572.024963 274.834442,572.625671 275.319214,572.615540 
	C279.226532,572.534363 283.274719,572.613403 285.297729,567.446167 
	C285.835114,567.214600 286.372498,566.983032 287.196442,567.403381 
	C287.853302,567.774536 288.510193,568.145752 289.167023,568.516907 
	C289.419983,567.309387 289.672943,566.101868 289.935394,564.933105 
	C289.935394,564.933105 289.893646,564.903809 290.675232,564.895264 
	C292.693878,564.861938 295.764252,563.985718 296.537354,564.950439 
	C299.030273,568.061218 301.845398,567.580139 304.982635,566.996033 
	C304.982635,566.996033 304.970703,567.061584 305.059387,567.750305 
	C309.229431,573.536316 311.773376,574.093689 314.990845,569.990906 
	C314.990845,569.990906 314.915985,569.949097 315.691437,569.850220 
	C317.252441,567.367004 318.800201,564.885559 314.894653,563.032837 
	C314.894653,563.032837 314.881104,563.148804 314.865417,562.709534 
	C314.781555,562.412415 314.606262,562.186157 314.101227,561.263489 
	C314.014954,560.198120 313.928680,559.132751 314.468903,557.569641 
	C313.597839,551.162476 316.285797,546.550354 321.673920,543.308228 
	C322.525635,542.795654 323.470367,542.414246 324.255554,541.818542 
	C327.411072,539.424683 327.662201,535.224304 324.933533,533.058167 
	C324.933533,533.058167 324.877594,533.172668 324.835144,532.388733 
	C321.634949,531.594116 318.458710,530.294312 315.228088,530.141052 
	C311.711823,529.974365 308.917847,529.849487 307.760834,525.740173 
	C307.033142,523.155518 305.542847,520.785522 304.447571,518.432922 
	C302.708191,518.630859 301.250946,518.796631 299.713226,518.351868 
	C299.733826,517.942383 299.754425,517.532959 300.311829,516.800781 
	C299.653290,515.855469 298.994751,514.910217 297.834961,513.478455 
	C297.244415,513.108643 296.653870,512.738770 296.019531,511.813446 
	C295.635742,511.434235 295.251984,511.055023 294.868195,510.675812 
	C294.305145,511.523895 293.742096,512.372009 293.055084,513.079468 
	C293.055084,513.079468 293.214844,513.177551 292.482788,513.139343 
	C291.017670,515.224243 287.763672,516.727356 290.150116,520.738098 
	C289.994629,521.143982 289.839142,521.549805 288.952728,521.972046 
	C287.406769,522.434753 285.860779,522.897461 284.557800,523.287476 
	C285.575714,525.244995 286.301239,526.640198 287.000000,528.000000 
	C287.000000,528.000000 287.038116,528.022949 286.369965,528.057373 
	C285.572083,528.974915 284.774200,529.892456 283.215637,531.027344 
	C282.164215,531.067322 281.112762,531.107300 279.519562,530.504822 
	C276.896118,530.341614 274.251740,529.929138 271.660217,530.146545 
	C270.719086,530.225586 269.904144,531.808594 268.399994,532.875061 
	C267.968475,532.931030 267.536957,532.987061 266.324615,533.140564 
	C263.624359,538.072327 264.392365,539.799927 270.152374,541.535706 
	C270.356049,541.790161 270.605225,541.987061 271.167328,542.521484 
	C271.367859,542.777222 271.614258,542.976135 272.163269,543.509277 
M245.903488,273.262024 
	C245.369080,273.055389 244.834656,272.848724 243.917969,272.101807 
	C237.991302,270.426697 232.102386,267.485504 226.131088,267.307495 
	C206.058197,266.708923 185.953598,266.936798 165.866974,267.238464 
	C161.899780,267.298004 157.958618,269.090942 153.421783,269.922180 
	C144.466965,272.330994 137.256210,277.195496 131.879776,285.220337 
	C131.879776,285.220337 131.801163,285.545471 131.187576,285.868439 
	C126.662003,291.526337 123.203781,297.670929 122.171478,305.680634 
	C122.156303,306.138336 122.141129,306.596069 121.708168,307.744446 
	C121.568245,308.899078 121.308182,310.053436 121.305801,311.208344 
	C121.227669,349.011749 120.990959,386.816284 121.225594,424.617920 
	C121.298836,436.418091 131.722534,445.184601 143.594238,444.677643 
	C144.885361,444.622498 146.180893,444.670227 148.098236,444.670227 
	C148.098236,452.672699 147.911072,460.464172 148.177139,468.240143 
	C148.310303,472.132019 146.767487,472.978943 143.213760,472.951355 
	C125.394814,472.813080 107.574188,472.885132 89.754158,472.898376 
	C85.757736,472.901367 81.703476,472.587189 77.793587,473.186829 
	C76.240219,473.425110 73.977539,475.704010 73.913147,477.138123 
	C73.846802,478.615479 75.885216,480.410248 77.359352,481.637909 
	C78.074722,482.233673 79.604675,481.903931 80.765877,481.904205 
	C157.708038,481.920990 234.650192,481.930969 311.592346,481.924286 
	C313.584747,481.924133 315.908600,482.331909 317.475830,481.463226 
	C319.026703,480.603668 320.615509,478.391602 320.667877,476.725006 
	C320.705811,475.517822 318.423889,473.937408 316.868469,473.086395 
	C315.836975,472.522003 314.261353,472.939697 312.929321,472.938660 
	C291.611847,472.922516 270.294403,472.916718 248.976944,472.883270 
	C247.230225,472.880524 245.483795,472.694794 243.682724,472.590912 
	C243.682724,462.793243 243.682724,453.581146 243.682724,444.369232 
	C259.349060,444.590424 267.261505,439.134918 269.781799,426.375763 
	C269.781921,425.903595 269.782013,425.431427 270.010895,424.052673 
	C270.034729,387.705170 270.062195,351.357635 270.067993,315.010132 
	C270.068207,313.693481 269.855347,312.376801 269.855042,310.329926 
	C269.738892,309.856384 269.622742,309.382812 269.713226,308.203033 
	C269.129181,306.166595 268.545135,304.130127 267.970734,301.320190 
	C265.043549,292.172424 260.592987,284.028320 252.357895,277.610077 
	C250.320236,276.316742 248.282578,275.023407 245.903488,273.262024 
M80.838135,570.219055 
	C80.838135,570.219055 80.796776,570.366455 81.311798,570.895935 
	C83.000870,570.402344 84.837837,570.179993 86.347427,569.357056 
	C89.258492,567.770203 92.141052,566.043945 94.746262,564.005920 
	C97.742897,561.661499 100.255516,561.830688 103.195206,564.104004 
	C106.078506,566.333740 109.171806,568.364075 112.402245,570.039856 
	C113.830200,570.780579 116.036407,570.948853 117.472031,570.359802 
	C118.202301,570.060242 118.417328,567.433044 118.154053,565.987549 
	C117.412376,561.915283 115.985680,557.949463 115.477493,553.861084 
	C115.240448,551.954102 115.945511,549.370544 117.196884,547.952698 
	C119.926285,544.860168 123.396461,542.433899 126.313171,539.487244 
	C127.325882,538.464050 128.336746,536.483826 127.992760,535.353210 
	C127.676262,534.312927 125.604004,533.392822 124.190849,533.180298 
	C120.418678,532.613098 116.498230,532.832825 112.809792,531.985901 
	C110.743881,531.511536 108.293655,529.946472 107.294411,528.158630 
	C105.123512,524.274414 103.901001,519.871948 102.004303,515.815247 
	C101.468216,514.668640 99.962318,513.321716 98.861801,513.286072 
	C97.863960,513.253845 96.379730,514.684326 95.863014,515.814209 
	C94.068497,519.738464 92.447014,523.760071 91.061737,527.846985 
	C90.057892,530.808655 88.137726,532.053284 85.196365,532.233398 
	C81.380371,532.467041 77.544426,532.596375 73.767258,533.127502 
	C72.363548,533.324829 70.330353,534.280945 69.985970,535.344849 
	C69.621407,536.471069 70.790756,538.213867 71.548882,539.539429 
	C72.020798,540.364685 72.893837,541.037720 73.721283,541.570312 
	C81.321907,546.462036 84.679123,552.687683 80.462418,561.609741 
	C79.705299,563.211670 79.487427,565.170776 79.452423,566.973389 
	C79.431427,568.055054 80.247314,569.153076 80.838135,570.219055 
M219.689804,72.839668 
	C220.128433,72.831421 220.567047,72.823174 221.712006,73.154793 
	C240.071777,75.914055 258.104797,80.217010 274.517487,88.977638 
	C286.785339,95.525864 298.228180,103.635849 309.933960,111.211708 
	C313.682251,113.637558 318.189514,113.836594 320.865173,111.081459 
	C324.064209,107.787415 324.003967,102.946609 320.647217,99.406746 
	C319.619965,98.323479 318.462250,97.352730 317.298553,96.411720 
	C286.397247,71.423950 250.733856,58.528522 211.427185,55.532730 
	C176.413757,52.864151 143.032990,59.820396 111.886475,75.816185 
	C99.399628,82.229012 87.950134,90.731255 76.321655,98.709778 
	C72.022606,101.659439 71.631348,106.759842 74.267937,110.199997 
	C76.975189,113.732330 82.240143,114.223343 86.407135,111.277657 
	C88.983162,109.456635 91.506660,107.561150 94.048950,105.692574 
	C120.901840,85.955734 151.078049,75.043007 184.198792,72.652229 
	C195.760910,71.817635 207.438812,72.587273 219.689804,72.839668 
M46.497902,130.983795 
	C36.805889,143.987167 28.748873,157.902008 22.707954,172.987991 
	C6.560745,213.312469 4.759479,254.182098 18.007978,295.597931 
	C18.646036,297.592529 20.374746,300.253204 22.063856,300.660217 
	C24.636652,301.280151 28.704947,301.186768 30.153805,299.592712 
	C31.980303,297.583160 33.021584,293.435272 32.308956,290.769257 
	C26.893309,270.508942 23.919489,250.091492 25.559992,229.051712 
	C27.987974,197.912338 38.137753,169.671204 56.582554,144.465118 
	C60.017258,139.771378 63.959423,135.452255 67.516327,130.843674 
	C70.645042,126.789886 70.258286,122.272079 66.771225,119.196968 
	C63.401905,116.225716 59.339436,116.433289 55.709644,120.196342 
	C52.597534,123.422691 49.845276,126.996155 46.497902,130.983795 
M359.004089,147.469803 
	C352.983551,138.954880 347.017853,130.400375 340.914154,121.945488 
	C338.635986,118.789772 332.821350,117.810829 330.234802,119.875328 
	C326.651917,122.735069 325.778320,128.568512 328.415771,131.897568 
	C332.215759,136.694016 336.068451,141.450729 339.779144,146.315552 
	C349.648468,159.254684 356.827026,173.671967 361.765350,189.075058 
	C368.478943,210.015366 372.326996,231.451385 369.978027,253.591904 
	C369.194305,260.979004 368.366852,268.374329 367.157776,275.699585 
	C366.055481,282.377777 364.123932,288.922516 363.100067,295.609100 
	C362.380310,300.309479 366.172180,301.925232 369.867249,302.721619 
	C373.380646,303.478851 377.188843,300.491394 377.985474,296.911530 
	C378.344482,295.298279 378.681152,293.677460 379.115906,292.084045 
	C383.093353,277.506622 385.602814,262.686920 385.965576,247.573090 
	C386.425842,228.396576 384.020386,209.596069 378.621338,191.124771 
	C374.159760,175.860718 367.431854,161.687820 359.004089,147.469803 
M231.187607,197.321762 
	C220.342392,180.262924 205.216980,173.316498 187.225204,177.131760 
	C171.013885,180.569443 157.832458,194.896332 155.384979,211.738846 
	C150.835739,243.044846 180.501816,267.575165 209.997482,256.896881 
	C233.069397,248.544144 243.076782,221.218948 231.187607,197.321762 
M178.709976,565.064331 
	C178.940567,566.877686 179.171143,568.691040 179.401749,570.504456 
	C181.237213,570.110107 183.635849,570.321899 184.817749,569.223938 
	C193.159073,561.475098 201.333862,560.598816 209.717743,569.009277 
	C210.059174,569.351868 210.540451,569.683472 210.999146,569.757874 
	C212.688934,570.031860 214.396652,570.195312 216.097626,570.400391 
	C216.266235,568.829468 217.061325,566.979675 216.505615,565.731140 
	C211.468094,554.413513 214.068832,545.722595 224.772888,539.329895 
	C225.871170,538.673950 226.932343,536.350647 226.567886,535.302917 
	C226.204666,534.258728 223.947861,533.129517 222.653671,533.268616 
	C210.723740,534.551270 203.448486,529.869873 201.277542,517.706421 
	C200.987213,516.079712 199.068970,514.743530 197.904572,513.272827 
	C196.599564,514.783875 194.735687,516.085205 194.077682,517.839050 
	C188.659637,532.279419 188.724274,532.250000 173.685669,533.140930 
	C171.896866,533.246948 170.166977,534.347717 168.409775,534.987366 
	C169.339050,536.760376 169.806763,539.306213 171.272202,540.181396 
	C181.069733,546.032593 183.665817,553.927124 178.709976,565.064331 
M184.428497,30.126900 
	C187.104080,34.333595 189.809692,38.521568 192.448029,42.751488 
	C196.186752,48.745632 199.948914,48.991951 203.843033,43.202469 
	C208.202118,36.721687 212.429520,30.145491 216.505630,23.483183 
	C220.502167,16.950939 218.497147,13.585504 210.680481,13.519925 
	C202.536758,13.451602 194.391800,13.523925 186.247437,13.552202 
	C185.252274,13.555657 184.244202,13.584563 183.264771,13.742363 
	C178.296753,14.542776 176.795029,17.560970 179.292435,21.897495 
	C180.784653,24.488646 182.483551,26.960773 184.428497,30.126900 
z"/>
<path fill="#E0A82C" opacity="1.000000" stroke="none" 
	d="
M269.446655,427.007324 
	C267.261505,439.134918 259.349060,444.590424 243.682724,444.369232 
	C243.682724,453.581146 243.682724,462.793243 243.682724,472.590912 
	C245.483795,472.694794 247.230225,472.880524 248.976944,472.883270 
	C270.294403,472.916718 291.611847,472.922516 312.929321,472.938660 
	C314.261353,472.939697 315.836975,472.522003 316.868469,473.086395 
	C318.423889,473.937408 320.705811,475.517822 320.667877,476.725006 
	C320.615509,478.391602 319.026703,480.603668 317.475830,481.463226 
	C315.908600,482.331909 313.584747,481.924133 311.592346,481.924286 
	C234.650192,481.930969 157.708038,481.920990 80.765877,481.904205 
	C79.604675,481.903931 78.074722,482.233673 77.359352,481.637909 
	C75.885216,480.410248 73.846802,478.615479 73.913147,477.138123 
	C73.977539,475.704010 76.240219,473.425110 77.793587,473.186829 
	C81.703476,472.587189 85.757736,472.901367 89.754158,472.898376 
	C107.574188,472.885132 125.394814,472.813080 143.213760,472.951355 
	C146.767487,472.978943 148.310303,472.132019 148.177139,468.240143 
	C147.911072,460.464172 148.098236,452.672699 148.098236,444.670227 
	C146.180893,444.670227 144.885361,444.622498 143.594238,444.677643 
	C131.722534,445.184601 121.298836,436.418091 121.225594,424.617920 
	C120.990959,386.816284 121.227669,349.011749 121.305801,311.208344 
	C121.308182,310.053436 121.568245,308.899078 122.189613,307.705627 
	C122.773705,309.482574 122.965012,311.298279 122.965912,313.114075 
	C122.984177,349.888367 123.247910,386.665833 122.813164,423.434967 
	C122.688034,434.017975 133.912094,444.853088 144.967438,442.745270 
	C149.036194,441.969513 150.180099,443.392517 149.998901,447.463867 
	C150.416779,453.895264 150.842194,459.870117 151.267609,465.844971 
	C151.962433,465.954041 152.657257,466.063080 153.352081,466.172150 
	C153.902466,464.614807 154.866699,463.073395 154.927246,461.497223 
	C155.125305,456.341156 154.994324,451.172485 154.997314,445.541992 
	C155.003586,440.381134 155.002411,435.686890 155.003326,430.525513 
	C155.001175,424.375488 154.996933,418.692627 154.999420,412.540405 
	C154.998779,406.045319 154.991409,400.019592 154.990585,393.527466 
	C154.994888,388.042694 154.992630,383.024414 154.996277,377.538879 
	C154.998749,372.045746 154.995300,367.019806 154.997375,361.526245 
	C154.283966,350.461731 156.465469,339.612427 152.866302,328.568970 
	C151.587387,329.460175 150.650681,329.801056 150.641891,330.164368 
	C150.377533,341.107605 150.204742,352.053070 150.009216,363.465210 
	C150.004044,368.957245 150.007278,373.982300 150.004074,379.472900 
	C150.313858,384.970123 150.630096,390.001709 150.955048,395.497742 
	C150.960861,401.635437 150.957962,407.308716 150.668152,413.285370 
	C150.256393,419.056976 150.131546,424.525208 150.000702,430.398682 
	C150.704361,435.035645 147.809830,436.752777 144.639328,437.800995 
	C141.250519,438.921387 134.474182,435.817139 133.413055,433.029205 
	C137.454254,435.874542 141.492996,437.332001 145.871521,435.155273 
	C150.073517,433.066345 148.127457,428.911652 148.142410,425.749176 
	C148.284241,395.766144 148.187973,365.781952 148.171539,335.798126 
	C148.170532,333.967651 147.737518,331.886566 148.456146,330.373627 
	C149.252853,328.696228 151.142227,327.537811 152.555801,326.153412 
	C153.915024,327.561432 155.556076,328.802063 156.528519,330.439758 
	C157.118759,331.433746 156.692841,333.041534 156.693787,334.373566 
	C156.725204,378.683197 156.749802,422.992798 156.793442,467.302429 
	C156.795166,469.052246 156.973465,470.801880 157.100601,473.118744 
	C168.775894,473.118744 179.904846,473.118744 191.032318,473.345856 
	C191.030869,473.572968 191.007721,474.026581 190.542297,474.017212 
	C185.716873,474.026367 181.356857,474.044891 176.528687,474.048553 
	C168.191849,473.454865 160.070129,471.423462 152.531036,472.736755 
	C145.988358,473.876495 139.856949,474.473572 133.205704,474.225311 
	C116.102547,473.586975 98.958168,473.892151 81.835060,474.145355 
	C79.607742,474.178314 77.408707,476.123260 75.196579,477.182587 
	C77.366913,478.127472 79.532616,479.882812 81.708267,479.895233 
	C112.469086,480.070862 143.231247,480.009827 174.457001,480.010712 
	C178.949173,480.013000 182.977417,480.010712 187.473969,480.010803 
	C198.757111,480.011749 209.571930,480.009033 220.386765,480.009003 
	C251.333771,480.008972 282.280853,480.040283 313.227539,479.939941 
	C315.210907,479.933472 317.190979,478.911896 319.172607,478.362549 
	C319.075684,477.587006 318.978729,476.811493 318.881805,476.035950 
	C314.787567,475.361755 310.699036,474.148804 306.598053,474.105103 
	C287.133575,473.897888 267.665009,474.089630 248.199692,473.927551 
	C244.994537,473.900848 241.798157,472.819641 238.134277,472.139771 
	C236.445847,472.620636 233.666748,472.793793 231.641174,474.118866 
	C227.535950,476.804260 223.841125,474.019928 219.976868,474.007538 
	C213.654510,473.987274 207.332108,473.982452 201.009735,473.719818 
	C201.013290,473.300964 201.016800,473.133423 201.487488,472.949097 
	C210.940887,472.918732 219.938828,472.626160 228.908585,473.003571 
	C233.758438,473.207611 235.027954,471.689697 235.007736,466.903625 
	C234.826370,423.970062 234.893112,381.035431 234.902634,338.101135 
	C234.903259,335.275391 234.643082,332.359741 235.265396,329.661469 
	C235.580811,328.293884 237.737274,326.273376 238.810776,326.417297 
	C240.321884,326.619904 241.979309,328.336517 242.854355,329.828003 
	C243.516998,330.957458 243.087921,332.746857 243.088120,334.242584 
	C243.092361,365.861023 243.090088,397.479492 243.084900,429.097931 
	C243.083954,434.886261 245.573486,436.975189 251.410522,436.019958 
	C256.774414,435.142120 259.440277,431.167084 261.883698,427.295776 
	C262.463257,429.106659 262.981598,430.501923 263.499908,431.897156 
	C264.830719,430.939270 266.196411,430.025299 267.478729,429.006378 
	C268.205353,428.428955 268.795197,427.679352 269.446655,427.007324 
z"/>
<path fill="#FBC005" opacity="1.000000" stroke="none" 
	d="
M221.005676,72.814926 
	C220.567047,72.823174 220.128433,72.831421 219.284607,72.374100 
	C217.129242,71.289383 215.358765,70.083771 213.632141,70.143585 
	C199.400009,70.636642 185.168472,71.238113 170.953537,72.087494 
	C165.751770,72.398331 160.443878,72.923294 155.453171,74.314636 
	C147.781860,76.453293 140.095154,78.880318 132.863144,82.170181 
	C122.149597,87.043808 111.692368,92.534973 101.397385,98.251884 
	C96.228874,101.122017 91.765900,105.234451 86.783943,108.478020 
	C83.085869,110.885704 79.155365,110.913193 76.012329,108.765007 
	C76.813828,106.262512 77.367256,104.468445 77.964806,102.689201 
	C78.465103,101.199501 78.576744,99.170372 79.622337,98.343613 
	C84.100815,94.802490 88.631950,91.220070 93.562271,88.378685 
	C107.766060,80.192986 122.218994,72.759911 137.908401,67.339561 
	C151.232162,62.736504 164.781937,59.026623 178.453964,58.426132 
	C198.305145,57.554249 218.340942,56.168419 238.172333,61.644382 
	C250.685287,65.099533 263.369659,67.688377 274.970062,73.742310 
	C279.121277,75.908707 283.050598,78.496094 287.156281,80.754890 
	C294.337280,84.705605 301.709839,88.327568 308.737671,92.529572 
	C312.543945,94.805397 316.253784,97.607216 319.121674,100.934883 
	C320.567291,102.612282 321.230377,106.842255 320.119171,108.395988 
	C318.532318,110.614822 315.510986,113.268433 311.775757,110.008987 
	C307.955536,106.675377 303.901794,103.512047 299.589874,100.860176 
	C291.461029,95.860863 283.372803,90.620033 274.713348,86.705963 
	C265.121765,82.370552 254.947327,79.296753 244.947418,75.907524 
	C241.401443,74.705711 237.658585,73.894066 233.940231,73.441711 
	C229.666550,72.921799 225.320374,72.997780 221.005676,72.814926 
z"/>
<path fill="#F9C212" opacity="1.000000" stroke="none" 
	d="
M46.715889,130.699951 
	C49.845276,126.996155 52.597534,123.422691 55.709644,120.196342 
	C59.339436,116.433289 63.401905,116.225716 66.771225,119.196968 
	C70.258286,122.272079 70.645042,126.789886 67.516327,130.843674 
	C63.959423,135.452255 60.017258,139.771378 56.582554,144.465118 
	C38.137753,169.671204 27.987974,197.912338 25.559992,229.051712 
	C23.919489,250.091492 26.893309,270.508942 32.308956,290.769257 
	C33.021584,293.435272 31.980303,297.583160 30.153805,299.592712 
	C28.704947,301.186768 24.636652,301.280151 22.063856,300.660217 
	C20.374746,300.253204 18.646036,297.592529 18.007978,295.597931 
	C4.759479,254.182098 6.560745,213.312469 22.707954,172.987991 
	C28.748873,157.902008 36.805889,143.987167 46.715889,130.699951 
z"/>
<path fill="#EDEDF4" opacity="1.000000" stroke="none" 
	d="
M359.252686,147.737915 
	C367.431854,161.687820 374.159760,175.860718 378.621338,191.124771 
	C384.020386,209.596069 386.425842,228.396576 385.965576,247.573090 
	C385.602814,262.686920 383.093353,277.506622 379.115906,292.084045 
	C378.681152,293.677460 378.344482,295.298279 377.985474,296.911530 
	C377.188843,300.491394 373.380646,303.478851 369.867249,302.721619 
	C366.172180,301.925232 362.380310,300.309479 363.100067,295.609100 
	C364.123932,288.922516 366.055481,282.377777 367.157776,275.699585 
	C368.366852,268.374329 369.194305,260.979004 369.978027,253.591904 
	C372.326996,231.451385 368.478943,210.015366 361.765350,189.075058 
	C356.827026,173.671967 349.648468,159.254684 339.779144,146.315552 
	C336.068451,141.450729 332.215759,136.694016 328.415771,131.897568 
	C325.778320,128.568512 326.651917,122.735069 330.234802,119.875328 
	C332.821350,117.810829 338.635986,118.789772 340.914154,121.945488 
	C347.017853,130.400375 352.983551,138.954880 359.252686,147.737915 
z"/>
<path fill="#E5A519" opacity="1.000000" stroke="none" 
	d="
M231.388428,197.631073 
	C243.076782,221.218948 233.069397,248.544144 209.997482,256.896881 
	C180.501816,267.575165 150.835739,243.044846 155.384979,211.738846 
	C157.832458,194.896332 171.013885,180.569443 187.225204,177.131760 
	C205.216980,173.316498 220.342392,180.262924 231.388428,197.631073 
M223.002533,199.666321 
	C217.847198,191.664017 210.399353,186.786514 201.222839,185.100067 
	C187.210617,182.524918 173.798126,189.653168 166.780884,202.738388 
	C160.348816,214.732407 162.558426,230.834229 172.000381,240.773849 
	C181.902206,251.197556 196.385681,253.981842 209.553528,247.917603 
	C224.299103,241.126755 235.183044,220.728409 223.002533,199.666321 
z"/>
<path fill="#F8C011" opacity="1.000000" stroke="none" 
	d="
M178.833069,564.671875 
	C183.665817,553.927124 181.069733,546.032593 171.272202,540.181396 
	C169.806763,539.306213 169.339050,536.760376 168.409775,534.987366 
	C170.166977,534.347717 171.896866,533.246948 173.685669,533.140930 
	C188.724274,532.250000 188.659637,532.279419 194.077682,517.839050 
	C194.735687,516.085205 196.599564,514.783875 197.904572,513.272827 
	C199.068970,514.743530 200.987213,516.079712 201.277542,517.706421 
	C203.448486,529.869873 210.723740,534.551270 222.653671,533.268616 
	C223.947861,533.129517 226.204666,534.258728 226.567886,535.302917 
	C226.932343,536.350647 225.871170,538.673950 224.772888,539.329895 
	C214.068832,545.722595 211.468094,554.413513 216.505615,565.731140 
	C217.061325,566.979675 216.266235,568.829468 216.097626,570.400391 
	C214.396652,570.195312 212.688934,570.031860 210.999146,569.757874 
	C210.540451,569.683472 210.059174,569.351868 209.717743,569.009277 
	C201.333862,560.598816 193.159073,561.475098 184.817749,569.223938 
	C183.635849,570.321899 181.237213,570.110107 179.401733,570.504395 
	C179.171143,568.691040 178.940567,566.877686 178.833069,564.671875 
z"/>
<path fill="#F2C536" opacity="1.000000" stroke="none" 
	d="
M221.358841,72.984863 
	C225.320374,72.997780 229.666550,72.921799 233.940231,73.441711 
	C237.658585,73.894066 241.401443,74.705711 244.947418,75.907524 
	C254.947327,79.296753 265.121765,82.370552 274.713348,86.705963 
	C283.372803,90.620033 291.461029,95.860863 299.589874,100.860176 
	C303.901794,103.512047 307.955536,106.675377 311.775757,110.008987 
	C315.510986,113.268433 318.532318,110.614822 320.119171,108.395988 
	C321.230377,106.842255 320.567291,102.612282 319.121674,100.934883 
	C316.253784,97.607216 312.543945,94.805397 308.737671,92.529572 
	C301.709839,88.327568 294.337280,84.705605 287.156281,80.754890 
	C283.050598,78.496094 279.121277,75.908707 274.970062,73.742310 
	C263.369659,67.688377 250.685287,65.099533 238.172333,61.644382 
	C218.340942,56.168419 198.305145,57.554249 178.453964,58.426132 
	C164.781937,59.026623 151.232162,62.736504 137.908401,67.339561 
	C122.218994,72.759911 107.766060,80.192986 93.562271,88.378685 
	C88.631950,91.220070 84.100815,94.802490 79.622337,98.343613 
	C78.576744,99.170372 78.465103,101.199501 77.964806,102.689201 
	C77.367256,104.468445 76.813828,106.262512 76.012329,108.765007 
	C79.155365,110.913193 83.085869,110.885704 86.783943,108.478020 
	C91.765900,105.234451 96.228874,101.122017 101.397385,98.251884 
	C111.692368,92.534973 122.149597,87.043808 132.863144,82.170181 
	C140.095154,78.880318 147.781860,76.453293 155.453171,74.314636 
	C160.443878,72.923294 165.751770,72.398331 170.953537,72.087494 
	C185.168472,71.238113 199.400009,70.636642 213.632141,70.143585 
	C215.358765,70.083771 217.129242,71.289383 218.971619,72.266411 
	C207.438812,72.587273 195.760910,71.817635 184.198792,72.652229 
	C151.078049,75.043007 120.901840,85.955734 94.048950,105.692574 
	C91.506660,107.561150 88.983162,109.456635 86.407135,111.277657 
	C82.240143,114.223343 76.975189,113.732330 74.267937,110.199997 
	C71.631348,106.759842 72.022606,101.659439 76.321655,98.709778 
	C87.950134,90.731255 99.399628,82.229012 111.886475,75.816185 
	C143.032990,59.820396 176.413757,52.864151 211.427185,55.532730 
	C250.733856,58.528522 286.397247,71.423950 317.298553,96.411720 
	C318.462250,97.352730 319.619965,98.323479 320.647217,99.406746 
	C324.003967,102.946609 324.064209,107.787415 320.865173,111.081459 
	C318.189514,113.836594 313.682251,113.637558 309.933960,111.211708 
	C298.228180,103.635849 286.785339,95.525864 274.517487,88.977638 
	C258.104797,80.217010 240.071777,75.914055 221.358841,72.984863 
z"/>
<path fill="#E5A20F" opacity="1.000000" stroke="none" 
	d="
M133.064819,432.932770 
	C134.474182,435.817139 141.250519,438.921387 144.639328,437.800995 
	C147.809830,436.752777 150.704361,435.035645 150.369110,430.405640 
	C152.162781,430.335876 153.582001,430.664276 155.001221,430.992676 
	C155.002411,435.686890 155.003586,440.381134 154.633453,445.577332 
	C152.843567,446.388672 151.424988,446.697998 150.006424,447.007324 
	C150.180099,443.392517 149.036194,441.969513 144.967438,442.745270 
	C133.912094,444.853088 122.688034,434.017975 122.813164,423.434967 
	C123.247910,386.665833 122.984177,349.888367 122.965912,313.114075 
	C122.965012,311.298279 122.773705,309.482574 122.398499,307.360291 
	C122.141129,306.596069 122.156303,306.138336 122.647629,305.283142 
	C123.719147,304.146240 124.508759,303.492004 124.876839,302.652863 
	C126.638092,298.637604 128.304886,294.580383 129.963074,290.520813 
	C130.631226,288.885010 131.191681,287.205231 131.801147,285.545471 
	C131.801163,285.545471 131.879776,285.220337 132.350555,285.084167 
	C136.544876,281.960388 140.268448,278.972748 144.340149,276.043213 
	C145.456009,277.720428 146.223709,279.339539 146.670776,281.118164 
	C145.379883,282.311218 144.409622,283.344696 143.412933,284.368652 
	C143.386520,284.359131 143.330643,284.365082 143.042328,284.354614 
	C142.592773,284.664276 142.431534,284.984344 142.136230,285.231262 
	C142.002197,285.158081 142.286209,285.270355 142.000092,285.291077 
	C141.553009,285.634155 141.392044,285.956482 141.210144,286.214722 
	C141.189209,286.150665 141.302551,286.223663 141.005371,286.259857 
	C140.446487,286.799866 140.184769,287.303711 139.824722,288.060638 
	C139.443497,288.530853 139.160614,288.747955 138.668304,289.074066 
	C138.199036,289.389709 138.044876,289.657227 137.998993,289.992828 
	C138.001587,290.000000 137.987946,289.995972 137.624084,290.035004 
	C131.376816,295.425537 129.108261,302.145416 129.773590,310.300720 
	C129.710052,311.082214 129.605377,311.523315 129.186859,312.080872 
	C128.302078,313.711639 127.224297,315.232269 127.243103,316.739258 
	C127.358047,325.947662 127.919807,335.151978 127.964012,344.359436 
	C128.078262,368.156738 128.002274,391.954956 127.995483,415.752808 
	C127.995102,417.082794 128.420822,418.710205 127.820427,419.694000 
	C124.182892,425.654480 129.048157,428.451447 132.070496,431.960266 
	C132.030136,431.973358 132.060043,431.893951 132.137543,432.145386 
	C132.500565,432.584076 132.786118,432.771332 133.054596,432.961731 
	C133.037506,432.964874 133.064819,432.932770 133.064819,432.932770 
z"/>
<path fill="#F9C213" opacity="1.000000" stroke="none" 
	d="
M184.259033,29.806648 
	C182.483551,26.960773 180.784653,24.488646 179.292435,21.897495 
	C176.795029,17.560970 178.296753,14.542776 183.264771,13.742363 
	C184.244202,13.584563 185.252274,13.555657 186.247437,13.552202 
	C194.391800,13.523925 202.536758,13.451602 210.680481,13.519925 
	C218.497147,13.585504 220.502167,16.950939 216.505630,23.483183 
	C212.429520,30.145491 208.202118,36.721687 203.843033,43.202469 
	C199.948914,48.991951 196.186752,48.745632 192.448029,42.751488 
	C189.809692,38.521568 187.104080,34.333595 184.259033,29.806648 
z"/>
<path fill="#E9A814" opacity="1.000000" stroke="none" 
	d="
M269.614227,426.691528 
	C268.795197,427.679352 268.205353,428.428955 267.478729,429.006378 
	C266.196411,430.025299 264.830719,430.939270 263.499908,431.897156 
	C262.981598,430.501923 262.463257,429.106659 261.920288,427.310394 
	C261.895630,426.909363 261.835266,426.956268 262.171021,426.699463 
	C262.668427,424.481445 262.969208,422.520355 262.970947,420.559021 
	C263.000854,386.706665 262.993958,352.854279 263.374756,318.956299 
	C265.505310,318.606323 267.256256,318.301941 269.007996,318.466370 
	C269.005920,352.349457 268.990112,385.763733 269.033691,419.177948 
	C269.036194,421.105377 269.521515,423.032166 269.782135,424.959259 
	C269.782013,425.431427 269.781921,425.903595 269.614227,426.691528 
z"/>
<path fill="#E4A51F" opacity="1.000000" stroke="none" 
	d="
M154.005447,270.084503 
	C157.958618,269.090942 161.899780,267.298004 165.866974,267.238464 
	C185.953598,266.936798 206.058197,266.708923 226.131088,267.307495 
	C232.102386,267.485504 237.991302,270.426697 244.025513,272.474548 
	C244.133072,272.847290 243.963913,273.050842 243.586929,272.988678 
	C239.946304,271.550110 237.076416,271.349365 235.535919,275.148804 
	C237.176392,276.584473 238.598419,277.828949 239.649673,279.054443 
	C237.187088,278.331848 235.095245,277.628265 232.916351,276.558929 
	C232.166672,275.791382 231.522812,275.077209 230.838562,275.036133 
	C224.093048,274.630981 217.338181,274.019653 210.591003,274.075531 
	C194.058853,274.212341 177.529343,274.671692 160.991974,274.616913 
	C160.081665,270.065125 156.697891,271.259552 153.991486,270.768158 
	C153.994492,270.540222 154.005447,270.084503 154.005447,270.084503 
z"/>
<path fill="#F3C431" opacity="1.000000" stroke="none" 
	d="
M80.687073,570.243713 
	C80.247314,569.153076 79.431427,568.055054 79.452423,566.973389 
	C79.487427,565.170776 79.705299,563.211670 80.462418,561.609741 
	C84.679123,552.687683 81.321907,546.462036 73.721283,541.570312 
	C72.893837,541.037720 72.020798,540.364685 71.548882,539.539429 
	C70.790756,538.213867 69.621407,536.471069 69.985970,535.344849 
	C70.330353,534.280945 72.363548,533.324829 73.767258,533.127502 
	C77.544426,532.596375 81.380371,532.467041 85.196365,532.233398 
	C88.137726,532.053284 90.057892,530.808655 91.061737,527.846985 
	C92.447014,523.760071 94.068497,519.738464 95.863014,515.814209 
	C96.379730,514.684326 97.863960,513.253845 98.861801,513.286072 
	C99.962318,513.321716 101.468216,514.668640 102.004303,515.815247 
	C103.901001,519.871948 105.123512,524.274414 107.294411,528.158630 
	C108.293655,529.946472 110.743881,531.511536 112.809792,531.985901 
	C116.498230,532.832825 120.418678,532.613098 124.190849,533.180298 
	C125.604004,533.392822 127.676262,534.312927 127.992760,535.353210 
	C128.336746,536.483826 127.325882,538.464050 126.313171,539.487244 
	C123.396461,542.433899 119.926285,544.860168 117.196884,547.952698 
	C115.945511,549.370544 115.240448,551.954102 115.477493,553.861084 
	C115.985680,557.949463 117.412376,561.915283 118.154053,565.987549 
	C118.417328,567.433044 118.202301,570.060242 117.472031,570.359802 
	C116.036407,570.948853 113.830200,570.780579 112.402245,570.039856 
	C109.171806,568.364075 106.078506,566.333740 103.195206,564.104004 
	C100.255516,561.830688 97.742897,561.661499 94.746262,564.005920 
	C92.141052,566.043945 89.258492,567.770203 86.347427,569.357056 
	C84.837837,570.179993 83.000870,570.402344 81.393555,570.473206 
	C84.828316,567.942505 88.213493,565.883789 91.527840,563.716736 
	C99.072701,558.783386 99.120354,558.898132 106.745186,564.081055 
	C109.546860,565.985535 112.884155,567.101929 115.977142,568.577820 
	C115.516129,563.754395 113.839996,560.313354 113.276558,556.698792 
	C112.666489,552.785156 112.112541,548.849182 116.399467,545.596191 
	C119.713943,543.081116 121.744362,538.873901 124.309914,535.466370 
	C121.237373,535.083313 116.881676,534.235352 112.501930,534.084229 
	C108.504417,533.946350 106.100769,532.719543 104.867180,528.613220 
	C103.830276,525.161438 101.790543,522.010925 100.194771,518.727051 
	C99.582657,518.696045 98.970535,518.665039 98.358414,518.634033 
	C96.557205,522.141663 94.654602,525.601868 92.982513,529.170044 
	C91.211960,532.948364 89.084328,535.088318 84.232605,534.424072 
	C80.311218,533.887024 76.156746,535.052368 72.105667,535.462585 
	C72.091049,536.019409 72.076431,536.576233 72.061821,537.133057 
	C75.618820,540.505798 79.534012,543.590393 82.578506,547.375366 
	C84.052925,549.208496 84.663284,552.466064 84.315819,554.884888 
	C83.570824,560.071167 81.949539,565.131714 80.687073,570.243713 
z"/>
<path fill="#E7AB32" opacity="1.000000" stroke="none" 
	d="
M313.842407,558.067383 
	C313.928680,559.132751 314.014954,560.198120 314.185974,561.880981 
	C314.320923,562.859009 314.524384,563.075806 314.881104,563.148804 
	C314.881104,563.148804 314.894653,563.032837 314.853333,563.503662 
	C314.846649,565.966064 314.881317,567.957581 314.915985,569.949097 
	C314.915985,569.949097 314.990845,569.990906 314.642273,570.008423 
	C311.186066,569.037842 308.078369,568.049683 304.970703,567.061584 
	C304.970703,567.061584 304.982635,566.996033 304.785095,566.741028 
	C302.722076,565.301147 300.856598,564.116272 299.040924,562.623413 
	C300.056946,561.632080 301.023132,560.948730 302.229980,560.212646 
	C302.470612,560.160034 302.958923,560.094421 303.124146,560.306885 
	C303.783508,560.718506 304.277649,560.917725 304.918304,561.337769 
	C305.393799,561.655579 305.722748,561.752441 306.061646,561.894958 
	C306.071564,561.940552 306.156403,561.901672 306.313873,562.190796 
	C307.628571,562.675659 309.270752,565.762573 309.769043,561.588379 
	C309.443970,560.163513 309.101959,559.079773 308.814575,557.699829 
	C308.604858,556.890076 308.340485,556.376648 308.075867,555.643127 
	C308.075562,555.423096 307.932465,555.006897 307.984009,554.649292 
	C307.788574,553.379089 307.541565,552.466370 307.339294,551.403687 
	C307.384064,551.253723 307.237457,550.977173 307.244202,550.604248 
	C307.164886,549.492188 307.078827,548.752930 307.174561,547.732727 
	C309.898041,544.963989 312.439697,542.476196 315.279419,539.899536 
	C316.655090,538.883301 317.732635,537.955994 319.221802,537.020752 
	C320.928070,536.856995 322.222687,536.701172 323.517273,536.545410 
	C323.509460,536.176270 323.501617,535.807190 323.493805,535.438110 
	C321.347412,534.935364 319.201050,534.432678 316.355225,533.766113 
	C317.285339,535.097290 317.650391,535.619751 317.570435,536.155640 
	C314.755859,536.084717 312.386230,536.000488 309.630493,535.830078 
	C306.574005,534.714661 303.903717,533.685425 301.630005,532.626526 
	C305.767853,533.377686 309.509064,534.158508 313.250275,534.939270 
	C313.311493,534.367188 313.372681,533.795044 313.433899,533.222961 
	C311.725220,533.146484 309.959534,533.306946 308.326996,532.914124 
	C307.149841,532.630859 306.149933,531.611084 305.488098,530.961121 
	C312.229370,531.725891 318.553467,532.449280 324.877594,533.172668 
	C324.877594,533.172668 324.933533,533.058167 324.940063,533.411804 
	C324.544434,535.346252 324.588013,537.298584 323.645721,538.429321 
	C321.777496,540.671387 319.399872,542.500122 317.171356,544.428711 
	C310.976746,549.789734 310.964294,549.775330 313.842407,558.067383 
z"/>
<path fill="#EAAE2C" opacity="1.000000" stroke="none" 
	d="
M305.070953,530.919800 
	C306.149933,531.611084 307.149841,532.630859 308.326996,532.914124 
	C309.959534,533.306946 311.725220,533.146484 313.433899,533.222961 
	C313.372681,533.795044 313.311493,534.367188 313.250275,534.939270 
	C309.509064,534.158508 305.767853,533.377686 301.640442,532.548157 
	C301.254272,532.499451 301.290466,532.349548 301.453247,532.209229 
	C301.410706,532.051636 301.205322,532.034424 300.787720,531.738464 
	C299.128204,528.025818 297.680878,524.592041 295.830994,520.203064 
	C294.439087,523.108154 293.141144,524.891785 292.719818,526.862854 
	C291.199738,533.973816 286.522430,536.080078 279.857544,536.026794 
	C277.625732,536.008911 275.383667,537.277527 272.689728,537.971680 
	C270.708069,538.029419 269.182983,538.073608 267.381165,537.952271 
	C267.104797,536.205566 267.105133,534.624329 267.105438,533.043091 
	C267.536957,532.987061 267.968475,532.931030 268.854309,533.109131 
	C272.892853,532.611206 276.477081,531.879272 280.061340,531.147339 
	C281.112762,531.107300 282.164215,531.067322 283.939575,530.987549 
	C285.455017,529.972778 286.246552,528.997864 287.038086,528.022949 
	C287.038116,528.022949 287.000000,528.000000 287.283325,527.816650 
	C288.272308,525.740784 288.977966,523.848206 289.683655,521.955688 
	C289.839142,521.549805 289.994629,521.143982 290.434753,520.180664 
	C291.551239,517.474670 292.383026,515.326111 293.214844,513.177551 
	C293.214844,513.177551 293.055084,513.079468 293.489380,513.097290 
	C294.636932,512.866394 295.350128,512.617615 296.063354,512.368896 
	C296.653870,512.738770 297.244415,513.108643 298.036530,514.071533 
	C298.750397,515.484253 299.262726,516.303833 299.775024,517.123474 
	C299.754425,517.532959 299.733826,517.942383 299.565735,518.891602 
	C300.985718,522.798523 302.553192,526.165833 304.169006,529.838135 
	C304.505310,530.418152 304.793304,530.693115 305.055237,530.962280 
	C305.029205,530.956482 305.070953,530.919800 305.070953,530.919800 
z"/>
<path fill="#E0A82C" opacity="1.000000" stroke="none" 
	d="
M269.896515,424.505981 
	C269.521515,423.032166 269.036194,421.105377 269.033691,419.177948 
	C268.990112,385.763733 269.005920,352.349457 269.008026,318.056671 
	C269.252136,315.138824 269.497009,313.099457 269.741821,311.060120 
	C269.855347,312.376801 270.068207,313.693481 270.067993,315.010132 
	C270.062195,351.357635 270.034729,387.705170 269.896515,424.505981 
z"/>
<path fill="#E1A51A" opacity="1.000000" stroke="none" 
	d="
M252.704651,278.149170 
	C260.592987,284.028320 265.043549,292.172424 267.922180,301.911469 
	C267.873627,302.502747 267.789276,302.912872 267.545074,302.691956 
	C265.859222,299.153015 264.763092,295.615997 262.849396,292.597260 
	C261.655670,290.714233 259.227509,289.613770 257.353302,288.162140 
	C256.533417,289.479248 255.713516,290.796356 254.606567,291.946167 
	C252.106186,289.314514 249.892838,286.850159 248.055283,284.257629 
	C250.201401,283.517578 251.971725,282.905731 253.377457,282.419922 
	C253.111588,280.732269 252.908112,279.440704 252.704651,278.149170 
z"/>
<path fill="#FEFAE8" opacity="1.000000" stroke="none" 
	d="
M304.120697,529.533081 
	C302.553192,526.165833 300.985718,522.798523 299.605957,519.196899 
	C301.250946,518.796631 302.708191,518.630859 304.447571,518.432922 
	C305.542847,520.785522 307.033142,523.155518 307.760834,525.740173 
	C308.917847,529.849487 311.711823,529.974365 315.228088,530.141052 
	C318.458710,530.294312 321.634949,531.594116 324.856384,532.780701 
	C318.553467,532.449280 312.229370,531.725891 305.488098,530.961121 
	C305.070953,530.919800 305.029205,530.956482 304.964905,530.681641 
	C304.640625,530.115540 304.380676,529.824341 304.120697,529.533081 
z"/>
<path fill="#FEFAE8" opacity="1.000000" stroke="none" 
	d="
M314.155640,557.818481 
	C310.964294,549.775330 310.976746,549.789734 317.171356,544.428711 
	C319.399872,542.500122 321.777496,540.671387 323.645721,538.429321 
	C324.588013,537.298584 324.544434,535.346252 324.886353,533.446045 
	C327.662201,535.224304 327.411072,539.424683 324.255554,541.818542 
	C323.470367,542.414246 322.525635,542.795654 321.673920,543.308228 
	C316.285797,546.550354 313.597839,551.162476 314.155640,557.818481 
z"/>
<path fill="#FEFAE8" opacity="1.000000" stroke="none" 
	d="
M284.981445,567.943237 
	C283.274719,572.613403 279.226532,572.534363 275.319214,572.615540 
	C274.834442,572.625671 274.183716,572.024963 273.868622,571.539368 
	C272.545502,569.500122 274.619293,561.224854 277.335846,559.358337 
	C277.416290,561.390930 277.099854,563.081848 276.799622,564.781494 
	C276.815857,564.790222 276.795990,564.799683 276.550201,564.908325 
	C276.221741,565.347595 276.139069,565.678345 276.025391,566.372314 
	C276.750519,567.928833 277.506653,569.122192 278.363068,570.473694 
	C280.156494,569.510315 281.578644,568.746338 283.328613,568.048706 
	C284.098145,568.057800 284.539795,568.000549 284.981445,567.943237 
z"/>
<path fill="#E1A51A" opacity="1.000000" stroke="none" 
	d="
M269.798462,310.695007 
	C269.497009,313.099457 269.252136,315.138824 269.007263,317.587860 
	C267.256256,318.301941 265.505310,318.606323 263.372223,318.513123 
	C262.989960,315.752472 262.989838,313.389343 263.331909,310.986877 
	C265.124298,309.959717 266.574524,308.971954 268.229309,308.066284 
	C268.791443,308.402008 269.149017,308.655640 269.506592,308.909271 
	C269.622742,309.382812 269.738892,309.856384 269.798462,310.695007 
z"/>
<path fill="#E0A82C" opacity="1.000000" stroke="none" 
	d="
M153.713623,270.003357 
	C154.005447,270.084503 153.994492,270.540222 153.755997,271.038300 
	C150.342346,273.019287 147.167175,274.502197 143.992004,275.985107 
	C140.268448,278.972748 136.544876,281.960388 132.487244,284.987823 
	C137.256210,277.195496 144.466965,272.330994 153.713623,270.003357 
z"/>
<path fill="#E0A82C" opacity="1.000000" stroke="none" 
	d="
M131.494354,285.706970 
	C131.191681,287.205231 130.631226,288.885010 129.963074,290.520813 
	C128.304886,294.580383 126.638092,298.637604 124.876839,302.652863 
	C124.508759,303.492004 123.719147,304.146240 122.783684,304.965668 
	C123.203781,297.670929 126.662003,291.526337 131.494354,285.706970 
z"/>
<path fill="#FEFAE8" opacity="1.000000" stroke="none" 
	d="
M298.991089,562.931396 
	C300.856598,564.116272 302.722076,565.301147 304.759583,566.762451 
	C301.845398,567.580139 299.030273,568.061218 296.537354,564.950439 
	C295.764252,563.985718 292.693878,564.861938 290.278839,564.650879 
	C289.882446,564.406555 289.790588,563.917236 290.038391,563.664246 
	C293.126617,562.140320 295.939789,560.375977 298.991089,562.931396 
z"/>
<path fill="#FEFAE8" opacity="1.000000" stroke="none" 
	d="
M278.035431,556.026367 
	C276.369446,552.280090 274.703461,548.533875 273.051392,544.351685 
	C273.065277,543.915833 273.225372,543.744934 273.541870,543.857788 
	C276.319397,546.531555 280.550873,547.899597 279.510437,552.947876 
	C279.171722,554.117432 279.046326,555.014954 278.921265,555.924255 
	C278.921631,555.935974 278.917969,555.915344 278.696960,555.940002 
	C278.475922,555.964661 278.035431,556.026367 278.035431,556.026367 
z"/>
<path fill="#E4A51F" opacity="1.000000" stroke="none" 
	d="
M252.531281,277.879639 
	C252.908112,279.440704 253.111588,280.732269 253.377457,282.419922 
	C251.971725,282.905731 250.201401,283.517578 248.066177,284.230469 
	C247.701294,284.331512 247.730225,284.280609 247.820190,283.960236 
	C247.937225,283.421143 247.964294,283.202454 248.145142,282.689636 
	C251.213638,280.455322 251.182587,278.424774 248.511597,276.278503 
	C247.632935,275.572449 246.806534,274.801361 246.027527,273.976715 
	C246.098785,273.893433 246.244919,273.730072 246.244919,273.730072 
	C248.282578,275.023407 250.320236,276.316742 252.531281,277.879639 
z"/>
<path fill="#E8AF37" opacity="1.000000" stroke="none" 
	d="
M289.790588,563.917236 
	C289.790588,563.917236 289.882446,564.406555 289.888062,564.655151 
	C289.893646,564.903809 289.935394,564.933105 289.623932,564.945862 
	C288.511597,565.556213 287.710724,566.153870 286.909851,566.751465 
	C286.372498,566.983032 285.835114,567.214600 285.139587,567.694702 
	C284.539795,568.000549 284.098145,568.057800 283.445068,567.775146 
	C283.150818,566.615601 283.067993,565.796082 282.992737,564.756897 
	C283.000275,564.537292 283.012787,564.097473 283.267700,563.952515 
	C284.047516,563.240540 284.572418,562.673584 285.065521,562.055664 
	C285.033722,562.004761 285.063690,562.121033 285.357025,562.088684 
	C286.092194,561.698669 286.534027,561.341064 287.237793,560.976807 
	C287.672577,560.995605 287.845428,561.020874 288.132446,561.309082 
	C288.761261,562.353760 289.275909,563.135498 289.790588,563.917236 
z"/>
<path fill="#FEFAE8" opacity="1.000000" stroke="none" 
	d="
M279.790466,530.826050 
	C276.477081,531.879272 272.892853,532.611206 269.170105,533.024292 
	C269.904144,531.808594 270.719086,530.225586 271.660217,530.146545 
	C274.251740,529.929138 276.896118,530.341614 279.790466,530.826050 
z"/>
<path fill="#FEFAE8" opacity="1.000000" stroke="none" 
	d="
M305.015045,567.405945 
	C308.078369,568.049683 311.186066,569.037842 314.620667,569.971436 
	C311.773376,574.093689 309.229431,573.536316 305.015045,567.405945 
z"/>
<path fill="#FEFAE8" opacity="1.000000" stroke="none" 
	d="
M266.715027,533.091797 
	C267.105133,534.624329 267.104797,536.205566 267.545898,538.220093 
	C268.667145,539.426086 269.346954,540.198669 269.989777,541.013245 
	C269.952820,541.055176 269.881378,541.141113 269.881378,541.141113 
	C264.392365,539.799927 263.624359,538.072327 266.715027,533.091797 
z"/>
<path fill="#FEFAE8" opacity="1.000000" stroke="none" 
	d="
M289.318176,521.963867 
	C288.977966,523.848206 288.272308,525.740784 287.296692,527.834351 
	C286.301239,526.640198 285.575714,525.244995 284.557800,523.287476 
	C285.860779,522.897461 287.406769,522.434753 289.318176,521.963867 
z"/>
<path fill="#FEFAE8" opacity="1.000000" stroke="none" 
	d="
M315.303711,569.899658 
	C314.881317,567.957581 314.846649,565.966064 314.815247,563.547974 
	C318.800201,564.885559 317.252441,567.367004 315.303711,569.899658 
z"/>
<path fill="#FEFAE8" opacity="1.000000" stroke="none" 
	d="
M292.848816,513.158447 
	C292.383026,515.326111 291.551239,517.474670 290.471069,519.855835 
	C287.763672,516.727356 291.017670,515.224243 292.848816,513.158447 
z"/>
<path fill="#E8B748" opacity="1.000000" stroke="none" 
	d="
M278.049866,556.398987 
	C278.035431,556.026367 278.475922,555.964661 278.748199,556.376465 
	C278.274780,559.449829 277.529114,562.111267 276.783447,564.772766 
	C277.099854,563.081848 277.416290,561.390930 277.703827,559.333862 
	C277.804749,558.235718 277.934540,557.503662 278.049866,556.398987 
z"/>
<path fill="#E0A82C" opacity="1.000000" stroke="none" 
	d="
M269.609924,308.556152 
	C269.149017,308.655640 268.791443,308.402008 268.217621,307.645996 
	C267.930664,305.733337 267.859955,304.323120 267.789276,302.912872 
	C267.789276,302.912872 267.873627,302.502747 267.917358,302.298218 
	C268.545135,304.130127 269.129181,306.166595 269.609924,308.556152 
z"/>
<path fill="#FEFAE8" opacity="1.000000" stroke="none" 
	d="
M287.053162,567.077393 
	C287.710724,566.153870 288.511597,565.556213 289.619202,564.926514 
	C289.672943,566.101868 289.419983,567.309387 289.167053,568.516907 
	C288.510193,568.145752 287.853302,567.774536 287.053162,567.077393 
z"/>
<path fill="#FEFAE8" opacity="1.000000" stroke="none" 
	d="
M300.043427,516.962158 
	C299.262726,516.303833 298.750397,515.484253 298.287170,514.314758 
	C298.994751,514.910217 299.653290,515.855469 300.043427,516.962158 
z"/>
<path fill="#FEFAE8" opacity="1.000000" stroke="none" 
	d="
M286.704041,528.040161 
	C286.246552,528.997864 285.455017,529.972778 284.319885,530.878906 
	C284.774200,529.892456 285.572083,528.974915 286.704041,528.040161 
z"/>
<path fill="#FEFAE8" opacity="1.000000" stroke="none" 
	d="
M296.041443,512.091187 
	C295.350128,512.617615 294.636932,512.866394 293.551392,513.167603 
	C293.742096,512.372009 294.305145,511.523895 294.868195,510.675812 
	C295.251984,511.055023 295.635742,511.434235 296.041443,512.091187 
z"/>
<path fill="#E4A51F" opacity="1.000000" stroke="none" 
	d="
M244.216660,272.744690 
	C244.834656,272.848724 245.369080,273.055389 246.074203,273.496033 
	C246.244919,273.730072 246.098785,273.893433 245.736694,273.937408 
	C244.904373,273.671204 244.434143,273.361023 243.963913,273.050842 
	C243.963913,273.050842 244.133072,272.847290 244.216660,272.744690 
z"/>
<path fill="#FEFAE8" opacity="1.000000" stroke="none" 
	d="
M314.873260,562.929199 
	C314.524384,563.075806 314.320923,562.859009 314.305115,562.264648 
	C314.606262,562.186157 314.781555,562.412415 314.873260,562.929199 
z"/>
<path fill="#FEFAE8" opacity="1.000000" stroke="none" 
	d="
M270.899902,542.126343 
	C270.605225,541.987061 270.356049,541.790161 270.016876,541.338379 
	C269.881378,541.141113 269.952820,541.055176 270.234863,541.077759 
	C270.716156,541.362122 270.915344,541.623901 271.059753,541.944824 
	C271.004944,542.003967 270.899902,542.126343 270.899902,542.126343 
z"/>
<path fill="#FEFAE8" opacity="1.000000" stroke="none" 
	d="
M271.906555,543.118225 
	C271.614258,542.976135 271.367859,542.777222 271.033630,542.323914 
	C270.899902,542.126343 271.004944,542.003967 271.293091,542.033569 
	C271.874451,542.260010 272.054352,542.531799 272.066162,542.937500 
	C272.011383,542.996277 271.906555,543.118225 271.906555,543.118225 
z"/>
<path fill="#FEFAE8" opacity="1.000000" stroke="none" 
	d="
M272.981750,543.997925 
	C272.609833,543.945618 272.364838,543.755432 272.034912,543.313721 
	C271.906555,543.118225 272.011383,542.996277 272.299255,543.012451 
	C272.898682,543.179443 273.111420,543.418152 273.225372,543.744934 
	C273.225372,543.744934 273.065277,543.915833 272.981750,543.997925 
z"/>
<path fill="#FEF8E7" opacity="1.000000" stroke="none" 
	d="
M247.690399,284.358673 
	C249.892838,286.850159 252.106186,289.314514 254.633316,291.924042 
	C254.947113,292.069244 254.883865,292.045624 254.948303,292.316467 
	C255.305359,292.790497 255.597961,292.993622 255.898331,293.131195 
	C255.906082,293.065613 255.775375,293.084686 255.801056,293.426361 
	C256.529480,294.908234 257.232239,296.048401 257.963684,297.517090 
	C258.192413,298.230988 258.392487,298.616425 258.609467,299.338623 
	C259.394257,301.794617 260.162109,303.913818 260.924927,306.405548 
	C261.113403,307.490540 261.306946,308.203003 261.435059,309.269348 
	C261.507202,310.075226 261.644775,310.527222 261.668610,311.369934 
	C261.670135,314.748657 261.885345,317.736664 261.885498,320.724670 
	C261.887329,356.135193 261.857086,391.545746 261.835266,426.956268 
	C261.835266,426.956268 261.895630,426.909363 261.859039,426.894714 
	C259.440277,431.167084 256.774414,435.142120 251.410522,436.019958 
	C245.573486,436.975189 243.083954,434.886261 243.084900,429.097931 
	C243.090088,397.479492 243.092361,365.861023 243.088120,334.242584 
	C243.087921,332.746857 243.516998,330.957458 242.854355,329.828003 
	C241.979309,328.336517 240.321884,326.619904 238.810776,326.417297 
	C237.737274,326.273376 235.580811,328.293884 235.265396,329.661469 
	C234.643082,332.359741 234.903259,335.275391 234.902634,338.101135 
	C234.893112,381.035431 234.826370,423.970062 235.007736,466.903625 
	C235.027954,471.689697 233.758438,473.207611 228.908585,473.003571 
	C219.938828,472.626160 210.940887,472.918732 201.349564,472.498474 
	C200.648972,462.572968 200.816315,453.065674 200.256943,443.601318 
	C200.131012,441.470459 197.675018,438.004608 195.930359,437.763092 
	C192.755768,437.323608 192.132034,440.492584 192.132019,443.455963 
	C192.131989,453.279968 191.968292,463.104004 191.651596,472.943420 
	C191.435822,472.958862 191.033783,473.118744 191.033783,473.118744 
	C179.904846,473.118744 168.775894,473.118744 157.100601,473.118744 
	C156.973465,470.801880 156.795166,469.052246 156.793442,467.302429 
	C156.749802,422.992798 156.725204,378.683197 156.693787,334.373566 
	C156.692841,333.041534 157.118759,331.433746 156.528519,330.439758 
	C155.556076,328.802063 153.915024,327.561432 152.555801,326.153412 
	C151.142227,327.537811 149.252853,328.696228 148.456146,330.373627 
	C147.737518,331.886566 148.170532,333.967651 148.171539,335.798126 
	C148.187973,365.781952 148.284241,395.766144 148.142410,425.749176 
	C148.127457,428.911652 150.073517,433.066345 145.871521,435.155273 
	C141.492996,437.332001 137.454254,435.874542 133.413055,433.029205 
	C133.064819,432.932770 133.037506,432.964874 132.981140,432.706787 
	C132.636520,432.263763 132.348282,432.078857 132.060043,431.893951 
	C132.060043,431.893951 132.030136,431.973358 131.977768,431.582581 
	C131.168274,428.184357 129.829803,425.190674 129.758316,422.167053 
	C129.498993,411.200043 129.684464,400.222961 129.665771,389.249725 
	C129.621887,363.487976 129.557053,337.726196 129.500687,311.964447 
	C129.605377,311.523315 129.710052,311.082214 129.900757,309.931885 
	C132.653824,302.813751 135.320877,296.404877 137.987946,289.995972 
	C137.987946,289.995972 138.001587,290.000000 138.229950,289.907074 
	C138.760300,289.611267 138.900101,289.328217 138.877716,288.965057 
	C139.160614,288.747955 139.443497,288.530853 140.089020,287.965393 
	C140.735291,287.152588 141.018921,286.688141 141.302551,286.223663 
	C141.302551,286.223663 141.189209,286.150665 141.465439,286.146149 
	C141.923187,285.851196 142.104691,285.560791 142.286209,285.270355 
	C142.286209,285.270355 142.002197,285.158081 142.385391,285.171021 
	C142.955948,284.911011 143.143295,284.638062 143.330658,284.365082 
	C143.330643,284.365082 143.386520,284.359131 143.717255,284.292725 
	C145.399414,283.179596 146.750854,282.132904 148.067719,281.053040 
	C148.033157,281.019836 148.050354,281.114136 148.317657,281.073730 
	C148.809769,280.773407 149.034561,280.513458 149.205643,280.264832 
	C149.151917,280.276154 149.233200,280.349945 149.533249,280.321228 
	C150.275436,279.917084 150.717575,279.541718 151.117035,279.132507 
	C151.074356,279.098694 151.085297,279.207062 151.429718,279.199799 
	C152.359116,278.856537 152.944061,278.520538 153.656738,278.220703 
	C153.784454,278.256866 153.975204,278.072205 154.384491,278.052307 
	C162.673843,277.280701 170.553497,275.907715 178.434036,275.902527 
	C196.623596,275.890564 214.813599,276.542206 233.003418,276.924683 
	C235.095245,277.628265 237.187088,278.331848 239.744354,279.138306 
	C240.209808,279.241211 240.445190,279.147186 240.636002,279.441925 
	C241.845657,280.239227 242.864502,280.741821 243.904312,281.184692 
	C243.925278,281.125000 243.798767,281.123230 243.890289,281.383301 
	C244.303787,281.804993 244.625763,281.966583 244.948334,282.083435 
	C244.948944,282.038666 244.877472,282.092621 244.995056,282.355286 
	C245.742737,283.032135 246.372818,283.446320 247.151428,284.023163 
	C247.299973,284.185822 247.730225,284.280609 247.730225,284.280609 
	C247.730225,284.280609 247.701294,284.331512 247.690399,284.358673 
z"/>
<path fill="#EAA305" opacity="1.000000" stroke="none" 
	d="
M191.032318,473.345856 
	C191.033783,473.118744 191.435822,472.958862 192.024414,472.966705 
	C194.596649,472.052887 196.580307,471.131226 198.447098,470.263855 
	C199.168411,471.307373 200.089066,472.639252 201.009720,473.971161 
	C207.332108,473.982452 213.654510,473.987274 219.976868,474.007538 
	C223.841125,474.019928 227.535950,476.804260 231.641174,474.118866 
	C233.666748,472.793793 236.445847,472.620636 238.134277,472.139771 
	C241.798157,472.819641 244.994537,473.900848 248.199692,473.927551 
	C267.665009,474.089630 287.133575,473.897888 306.598053,474.105103 
	C310.699036,474.148804 314.787567,475.361755 318.881805,476.035950 
	C318.978729,476.811493 319.075684,477.587006 319.172607,478.362549 
	C317.190979,478.911896 315.210907,479.933472 313.227539,479.939941 
	C282.280853,480.040283 251.333771,480.008972 220.386765,480.009003 
	C209.571930,480.009033 198.757111,480.011749 187.508606,479.665070 
	C188.385864,477.553467 189.696793,475.790039 191.007721,474.026581 
	C191.007721,474.026581 191.030869,473.572968 191.032318,473.345856 
z"/>
<path fill="#EAA305" opacity="1.000000" stroke="none" 
	d="
M173.993088,480.006104 
	C143.231247,480.009827 112.469086,480.070862 81.708267,479.895233 
	C79.532616,479.882812 77.366913,478.127472 75.196579,477.182587 
	C77.408707,476.123260 79.607742,474.178314 81.835060,474.145355 
	C98.958168,473.892151 116.102547,473.586975 133.205704,474.225311 
	C139.856949,474.473572 145.988358,473.876495 152.531036,472.736755 
	C160.070129,471.423462 168.191849,473.454865 176.522766,474.402557 
	C175.987686,476.516327 174.990387,478.261200 173.993088,480.006104 
z"/>
<path fill="#E2A723" opacity="1.000000" stroke="none" 
	d="
M201.009735,473.719818 
	C200.089066,472.639252 199.168411,471.307373 198.447098,470.263855 
	C196.580307,471.131226 194.596649,472.052887 192.240189,472.951294 
	C191.968292,463.104004 192.131989,453.279968 192.132019,443.455963 
	C192.132034,440.492584 192.755768,437.323608 195.930359,437.763092 
	C197.675018,438.004608 200.131012,441.470459 200.256943,443.601318 
	C200.816315,453.065674 200.648972,462.572968 200.882385,472.515320 
	C201.016800,473.133423 201.013290,473.300964 201.009735,473.719818 
M196.939270,441.199677 
	C195.981857,442.653564 194.314575,444.052917 194.197968,445.571381 
	C193.824158,450.439056 193.880173,455.357300 194.102036,460.240997 
	C194.158875,461.491974 195.439423,462.687347 196.157776,463.908264 
	C197.099274,462.788879 198.721725,461.743469 198.852890,460.536072 
	C199.226822,457.093597 199.157745,453.575348 198.949585,450.105713 
	C198.770706,447.124115 198.160187,444.168365 196.939270,441.199677 
z"/>
<path fill="#EBA70A" opacity="1.000000" stroke="none" 
	d="
M150.017609,362.998169 
	C150.204742,352.053070 150.377533,341.107605 150.641891,330.164368 
	C150.650681,329.801056 151.587387,329.460175 152.866302,328.568970 
	C156.465469,339.612427 154.283966,350.461731 154.634109,361.567627 
	C152.849426,362.383881 151.433517,362.691010 150.017609,362.998169 
z"/>
<path fill="#EDA90C" opacity="1.000000" stroke="none" 
	d="
M155.003326,430.525513 
	C153.582001,430.664276 152.162781,430.335876 150.375137,430.000458 
	C150.131546,424.525208 150.256393,419.056976 151.073303,413.292053 
	C152.841141,413.000183 153.916916,413.004974 154.992691,413.009766 
	C154.996933,418.692627 155.001175,424.375488 155.003326,430.525513 
z"/>
<path fill="#ECA709" opacity="1.000000" stroke="none" 
	d="
M149.998901,447.463867 
	C151.424988,446.697998 152.843567,446.388672 154.626007,446.044006 
	C154.994324,451.172485 155.125305,456.341156 154.927246,461.497223 
	C154.866699,463.073395 153.902466,464.614807 153.352081,466.172150 
	C152.657257,466.063080 151.962433,465.954041 151.267609,465.844971 
	C150.842194,459.870117 150.416779,453.895264 149.998901,447.463867 
z"/>
<path fill="#E39E04" opacity="1.000000" stroke="none" 
	d="
M174.457001,480.010712 
	C174.990387,478.261200 175.987686,476.516327 176.990906,474.417419 
	C181.356857,474.044891 185.716873,474.026367 190.542297,474.017212 
	C189.696793,475.790039 188.385864,477.553467 187.040298,479.662659 
	C182.977417,480.010712 178.949173,480.013000 174.457001,480.010712 
z"/>
<path fill="#E5A206" opacity="1.000000" stroke="none" 
	d="
M150.009216,363.465210 
	C151.433517,362.691010 152.849426,362.383881 154.628601,362.035309 
	C154.995300,367.019806 154.998749,372.045746 154.632599,377.575623 
	C152.845520,378.388824 151.428024,378.698059 150.010529,379.007324 
	C150.007278,373.982300 150.004044,368.957245 150.009216,363.465210 
z"/>
<path fill="#EBA70A" opacity="1.000000" stroke="none" 
	d="
M150.004074,379.472900 
	C151.428024,378.698059 152.845520,378.388824 154.626694,378.042847 
	C154.992630,383.024414 154.994888,388.042694 154.638245,393.532593 
	C153.168365,394.347229 152.057358,394.690277 150.946350,395.033325 
	C150.630096,390.001709 150.313858,384.970123 150.004074,379.472900 
z"/>
<path fill="#E5A206" opacity="1.000000" stroke="none" 
	d="
M150.955048,395.497742 
	C152.057358,394.690277 153.168365,394.347229 154.631714,393.999023 
	C154.991409,400.019592 154.998779,406.045319 154.999420,412.540405 
	C153.916916,413.004974 152.841141,413.000183 151.360229,412.988708 
	C150.957962,407.308716 150.960861,401.635437 150.955048,395.497742 
z"/>
<path fill="#FEF7E7" opacity="1.000000" stroke="none" 
	d="
M223.186981,199.984009 
	C235.183044,220.728409 224.299103,241.126755 209.553528,247.917603 
	C196.385681,253.981842 181.902206,251.197556 172.000381,240.773849 
	C162.558426,230.834229 160.348816,214.732407 166.780884,202.738388 
	C173.798126,189.653168 187.210617,182.524918 201.222839,185.100067 
	C210.399353,186.786514 217.847198,191.664017 223.186981,199.984009 
z"/>
<path fill="#E0A82C" opacity="1.000000" stroke="none" 
	d="
M129.186859,312.080872 
	C129.557053,337.726196 129.621887,363.487976 129.665771,389.249725 
	C129.684464,400.222961 129.498993,411.200043 129.758316,422.167053 
	C129.829803,425.190674 131.168274,428.184357 132.018127,431.569458 
	C129.048157,428.451447 124.182892,425.654480 127.820427,419.694000 
	C128.420822,418.710205 127.995102,417.082794 127.995483,415.752808 
	C128.002274,391.954956 128.078262,368.156738 127.964012,344.359436 
	C127.919807,335.151978 127.358047,325.947662 127.243103,316.739258 
	C127.224297,315.232269 128.302078,313.711639 129.186859,312.080872 
z"/>
<path fill="#EAA91A" opacity="1.000000" stroke="none" 
	d="
M153.975204,278.072205 
	C153.975204,278.072205 153.784454,278.256866 153.285904,278.184326 
	C152.220001,278.476868 151.652649,278.841949 151.085297,279.207062 
	C151.085297,279.207062 151.074356,279.098694 150.784775,279.098694 
	C150.074524,279.515778 149.653854,279.932861 149.233185,280.349945 
	C149.233200,280.349945 149.151917,280.276154 148.929825,280.280273 
	C148.488602,280.560974 148.269485,280.837555 148.050354,281.114136 
	C148.050354,281.114136 148.033157,281.019836 147.790710,281.013092 
	C147.362640,280.990417 147.177032,280.974518 146.991409,280.958649 
	C146.223709,279.339539 145.456009,277.720428 144.340149,276.043213 
	C147.167175,274.502197 150.342346,273.019287 153.752991,271.266235 
	C156.697891,271.259552 160.081665,270.065125 160.617004,274.626099 
	C158.157623,276.037140 156.066406,277.054657 153.975204,278.072205 
z"/>
<path fill="#E0A82C" opacity="1.000000" stroke="none" 
	d="
M137.624084,290.035004 
	C135.320877,296.404877 132.653824,302.813751 129.859619,309.591492 
	C129.108261,302.145416 131.376816,295.425537 137.624084,290.035004 
z"/>
<path fill="#E0A82C" opacity="1.000000" stroke="none" 
	d="
M146.670776,281.118164 
	C147.177032,280.974518 147.362640,280.990417 147.825287,281.046265 
	C146.750854,282.132904 145.399414,283.179596 143.743668,284.302246 
	C144.409622,283.344696 145.379883,282.311218 146.670776,281.118164 
z"/>
<path fill="#E0A82C" opacity="1.000000" stroke="none" 
	d="
M141.005371,286.259857 
	C141.018921,286.688141 140.735291,287.152588 140.187363,287.712311 
	C140.184769,287.303711 140.446487,286.799866 141.005371,286.259857 
z"/>
<path fill="#E0A82C" opacity="1.000000" stroke="none" 
	d="
M132.137543,432.145386 
	C132.348282,432.078857 132.636520,432.263763 132.998215,432.703644 
	C132.786118,432.771332 132.500565,432.584076 132.137543,432.145386 
z"/>
<path fill="#E0A82C" opacity="1.000000" stroke="none" 
	d="
M138.668289,289.074066 
	C138.900101,289.328217 138.760300,289.611267 138.227356,289.899902 
	C138.044876,289.657227 138.199036,289.389709 138.668289,289.074066 
z"/>
<path fill="#E0A82C" opacity="1.000000" stroke="none" 
	d="
M142.000092,285.291077 
	C142.104691,285.560791 141.923187,285.851196 141.486389,286.210205 
	C141.392044,285.956482 141.553009,285.634155 142.000092,285.291077 
z"/>
<path fill="#E0A82C" opacity="1.000000" stroke="none" 
	d="
M143.042343,284.354614 
	C143.143295,284.638062 142.955948,284.911011 142.519440,285.244202 
	C142.431534,284.984344 142.592773,284.664276 143.042343,284.354614 
z"/>
<path fill="#E0A82C" opacity="1.000000" stroke="none" 
	d="
M262.171021,426.699463 
	C261.857086,391.545746 261.887329,356.135193 261.885498,320.724670 
	C261.885345,317.736664 261.670135,314.748657 261.866760,311.369385 
	C262.443848,310.996674 262.709320,311.006805 262.982819,311.006836 
	C262.990540,311.005157 262.989746,311.026245 262.989746,311.026245 
	C262.989838,313.389343 262.989960,315.752472 262.992615,318.558716 
	C262.993958,352.854279 263.000854,386.706665 262.970947,420.559021 
	C262.969208,422.520355 262.668427,424.481445 262.171021,426.699463 
z"/>
<path fill="#E0A82C" opacity="1.000000" stroke="none" 
	d="
M154.384491,278.052307 
	C156.066406,277.054657 158.157623,276.037140 160.623810,275.010437 
	C177.529343,274.671692 194.058853,274.212341 210.591003,274.075531 
	C217.338181,274.019653 224.093048,274.630981 230.838562,275.036133 
	C231.522812,275.077209 232.166672,275.791382 232.916351,276.558899 
	C214.813599,276.542206 196.623596,275.890564 178.434036,275.902527 
	C170.553497,275.907715 162.673843,277.280701 154.384491,278.052307 
z"/>
<path fill="#EBAB1D" opacity="1.000000" stroke="none" 
	d="
M240.445190,279.147186 
	C240.445190,279.147186 240.209808,279.241211 240.115112,279.157318 
	C238.598419,277.828949 237.176392,276.584473 235.535919,275.148804 
	C237.076416,271.349365 239.946304,271.550110 243.586929,272.988678 
	C244.434143,273.361023 244.904373,273.671204 245.665436,274.020691 
	C246.806534,274.801361 247.632935,275.572449 248.511597,276.278503 
	C251.182587,278.424774 251.213638,280.455322 247.901428,282.693604 
	C247.503937,282.991699 247.016296,282.998901 246.831818,282.748901 
	C246.057388,282.363434 245.467422,282.228027 244.877472,282.092621 
	C244.877472,282.092621 244.948944,282.038666 244.843811,281.830261 
	C244.425385,281.455658 244.112076,281.289459 243.798767,281.123230 
	C243.798767,281.123230 243.925278,281.125000 243.801605,280.822144 
	C242.600342,280.061920 241.522766,279.604553 240.445190,279.147186 
z"/>
<path fill="#FAC006" opacity="1.000000" stroke="none" 
	d="
M80.762604,570.231384 
	C81.949539,565.131714 83.570824,560.071167 84.315819,554.884888 
	C84.663284,552.466064 84.052925,549.208496 82.578506,547.375366 
	C79.534012,543.590393 75.618820,540.505798 72.061821,537.133057 
	C72.076431,536.576233 72.091049,536.019409 72.105667,535.462585 
	C76.156746,535.052368 80.311218,533.887024 84.232605,534.424072 
	C89.084328,535.088318 91.211960,532.948364 92.982513,529.170044 
	C94.654602,525.601868 96.557205,522.141663 98.358414,518.634033 
	C98.970535,518.665039 99.582657,518.696045 100.194771,518.727051 
	C101.790543,522.010925 103.830276,525.161438 104.867180,528.613220 
	C106.100769,532.719543 108.504417,533.946350 112.501930,534.084229 
	C116.881676,534.235352 121.237373,535.083313 124.309914,535.466370 
	C121.744362,538.873901 119.713943,543.081116 116.399467,545.596191 
	C112.112541,548.849182 112.666489,552.785156 113.276558,556.698792 
	C113.839996,560.313354 115.516129,563.754395 115.977142,568.577820 
	C112.884155,567.101929 109.546860,565.985535 106.745186,564.081055 
	C99.120354,558.898132 99.072701,558.783386 91.527840,563.716736 
	C88.213493,565.883789 84.828316,567.942505 81.136047,570.208496 
	C80.796776,570.366455 80.838135,570.219055 80.762604,570.231384 
z"/>
<path fill="#FDFCF3" opacity="1.000000" stroke="none" 
	d="
M288.018250,561.046143 
	C287.845428,561.020874 287.672577,560.995605 286.933441,560.989014 
	C285.932648,561.378845 285.498169,561.749939 285.063690,562.121033 
	C285.063690,562.121033 285.033722,562.004761 284.686768,561.954346 
	C283.868683,560.247192 283.397522,558.590332 282.920227,556.962158 
	C282.914124,556.990784 282.900848,556.931091 283.291626,556.877441 
	C285.456024,553.405640 285.628967,548.986267 283.844055,546.859436 
	C283.335144,546.557678 283.131927,546.300293 282.904114,545.747498 
	C282.509399,545.353577 282.220947,545.190735 281.626648,544.897278 
	C278.596008,542.497192 275.871155,540.227661 273.146271,537.958130 
	C275.383667,537.277527 277.625732,536.008911 279.857544,536.026794 
	C286.522430,536.080078 291.199738,533.973816 292.719818,526.862854 
	C293.141144,524.891785 294.439087,523.108154 295.830994,520.203064 
	C297.680878,524.592041 299.128204,528.025818 300.817078,531.859253 
	C301.058685,532.258789 301.290466,532.349548 301.290466,532.349548 
	C301.290466,532.349548 301.254272,532.499451 301.243835,532.577820 
	C303.903717,533.685425 306.574005,534.714661 309.833862,536.109863 
	C311.942688,537.646729 313.462006,538.817566 314.981323,539.988464 
	C312.439697,542.476196 309.898041,544.963989 306.920563,547.923157 
	C306.735657,549.255432 306.986542,550.116333 307.237457,550.977173 
	C307.237457,550.977173 307.384064,551.253723 307.251526,551.778320 
	C307.390137,553.204285 307.661316,554.105591 307.932465,555.006897 
	C307.932465,555.006897 308.075562,555.423096 308.037476,555.942139 
	C308.252869,556.972778 308.506409,557.484436 308.759949,557.996094 
	C309.101959,559.079773 309.443970,560.163513 309.409790,561.604187 
	C308.074524,561.941345 307.115479,561.921509 306.156403,561.901733 
	C306.156403,561.901672 306.071564,561.940552 305.907227,561.685059 
	C305.419189,561.325378 305.095490,561.221130 304.771790,561.116943 
	C304.277649,560.917725 303.783508,560.718506 302.981476,560.037109 
	C302.108490,559.375183 301.543396,559.195496 300.989746,559.007935 
	C301.001221,559.000000 300.986328,559.024719 300.883392,558.778564 
	C300.470673,558.379028 300.160858,558.225708 299.621277,558.010193 
	C299.391510,557.947998 299.002686,557.673279 298.885803,557.495605 
	C298.553131,557.109558 298.295258,557.004333 297.997620,557.001160 
	C298.000000,557.000000 297.998474,557.004395 297.820221,556.737610 
	C297.033875,556.352234 296.425812,556.233704 295.680359,556.155151 
	C295.542969,556.195068 295.262848,556.136780 295.004395,556.141113 
	C294.494537,556.366272 294.243134,556.587219 293.814087,556.920166 
	C293.636444,557.032227 293.222534,557.104065 292.956360,557.136719 
	C292.451874,557.423279 292.213562,557.677063 291.800659,558.150391 
	C291.118988,558.594482 290.611847,558.819153 289.861267,559.094238 
	C289.301453,559.294189 289.080811,559.532349 288.824463,560.075317 
	C288.468079,560.543030 288.243164,560.794556 288.018250,561.046143 
z"/>
<path fill="#DFA023" opacity="1.000000" stroke="none" 
	d="
M293.222534,557.104065 
	C293.222534,557.104065 293.636444,557.032227 294.073425,556.918945 
	C294.761230,556.582703 295.012054,556.359741 295.262848,556.136780 
	C295.262848,556.136780 295.542969,556.195068 295.894165,556.374573 
	C296.829742,556.704163 297.414124,556.854309 297.998474,557.004395 
	C297.998474,557.004395 298.000000,557.000000 298.091797,557.207153 
	C298.183563,557.414246 298.550690,557.677917 298.550690,557.677917 
	C298.550690,557.677917 299.002686,557.673279 299.002686,557.673279 
	C299.002686,557.673279 299.391510,557.947998 299.736572,558.242981 
	C300.383209,558.700195 300.684753,558.862488 300.986328,559.024719 
	C300.986328,559.024719 301.001221,559.000000 301.058167,559.281982 
	C301.406494,559.797791 301.697906,560.031555 301.989319,560.265320 
	C301.023132,560.948730 300.056946,561.632080 299.040924,562.623413 
	C295.939789,560.375977 293.126617,562.140320 290.038391,563.664246 
	C289.275909,563.135498 288.761261,562.353760 288.132446,561.309082 
	C288.243164,560.794556 288.468079,560.543030 289.076904,560.041382 
	C289.675446,559.542114 289.890076,559.292908 290.104706,559.043762 
	C290.611847,558.819153 291.118988,558.594482 292.067993,558.122314 
	C292.747406,557.617798 292.984955,557.360901 293.222534,557.104065 
z"/>
<path fill="#FFF3B9" opacity="1.000000" stroke="none" 
	d="
M315.279419,539.899536 
	C313.462006,538.817566 311.942688,537.646729 310.220001,536.196045 
	C312.386230,536.000488 314.755859,536.084717 317.731689,536.275818 
	C318.544891,536.561829 318.702301,536.777161 318.810181,537.028687 
	C317.732635,537.955994 316.655090,538.883301 315.279419,539.899536 
z"/>
<path fill="#EAAE2C" opacity="1.000000" stroke="none" 
	d="
M319.221802,537.020752 
	C318.702301,536.777161 318.544891,536.561829 318.176697,536.262451 
	C317.650391,535.619751 317.285339,535.097290 316.355225,533.766113 
	C319.201050,534.432678 321.347412,534.935364 323.493805,535.438110 
	C323.501617,535.807190 323.509460,536.176270 323.517273,536.545410 
	C322.222687,536.701172 320.928070,536.856995 319.221802,537.020752 
z"/>
<path fill="#FEF3CB" opacity="1.000000" stroke="none" 
	d="
M306.313873,562.190796 
	C307.115479,561.921509 308.074524,561.941345 309.392883,561.945312 
	C309.270752,565.762573 307.628571,562.675659 306.313873,562.190796 
z"/>
<path fill="#FEF3CB" opacity="1.000000" stroke="none" 
	d="
M307.244202,550.604248 
	C306.986542,550.116333 306.735657,549.255432 306.738770,548.204163 
	C307.078827,548.752930 307.164886,549.492188 307.244202,550.604248 
z"/>
<path fill="#FEF3CB" opacity="1.000000" stroke="none" 
	d="
M307.984009,554.649292 
	C307.661316,554.105591 307.390137,553.204285 307.206757,551.928345 
	C307.541565,552.466370 307.788574,553.379089 307.984009,554.649292 
z"/>
<path fill="#FEF3CB" opacity="1.000000" stroke="none" 
	d="
M302.229980,560.212646 
	C301.697906,560.031555 301.406494,559.797791 301.046692,559.289917 
	C301.543396,559.195496 302.108490,559.375183 302.816254,559.824646 
	C302.958923,560.094421 302.470612,560.160034 302.229980,560.212646 
z"/>
<path fill="#FEF3CB" opacity="1.000000" stroke="none" 
	d="
M308.814575,557.699829 
	C308.506409,557.484436 308.252869,556.972778 308.037750,556.162109 
	C308.340485,556.376648 308.604858,556.890076 308.814575,557.699829 
z"/>
<path fill="#FEF3CB" opacity="1.000000" stroke="none" 
	d="
M304.918304,561.337769 
	C305.095490,561.221130 305.419189,561.325378 305.897308,561.639526 
	C305.722748,561.752441 305.393799,561.655579 304.918304,561.337769 
z"/>
<path fill="#E5A427" opacity="1.000000" stroke="none" 
	d="
M283.010315,545.978516 
	C283.131927,546.300293 283.335144,546.557678 283.870239,547.271851 
	C283.683868,550.179688 283.247192,552.566345 282.608154,554.796143 
	C281.511810,553.984802 280.617798,553.330383 279.723755,552.675964 
	C280.550873,547.899597 276.319397,546.531555 273.541870,543.857788 
	C273.111420,543.418152 272.898682,543.179443 272.354004,542.953674 
	C272.054352,542.531799 271.874451,542.260010 271.347900,541.974487 
	C270.915344,541.623901 270.716156,541.362122 270.271851,541.035828 
	C269.346954,540.198669 268.667145,539.426086 267.822632,538.385620 
	C269.182983,538.073608 270.708069,538.029419 272.689728,537.971680 
	C275.871155,540.227661 278.596008,542.497192 281.723816,545.137390 
	C282.421295,545.664856 282.715790,545.821716 283.010315,545.978516 
z"/>
<path fill="#E7AB32" opacity="1.000000" stroke="none" 
	d="
M304.169006,529.838135 
	C304.380676,529.824341 304.640625,530.115540 304.990967,530.687500 
	C304.793304,530.693115 304.505310,530.418152 304.169006,529.838135 
z"/>
<path fill="#E7AB32" opacity="1.000000" stroke="none" 
	d="
M301.453247,532.209229 
	C301.290466,532.349548 301.058685,532.258789 301.029327,532.138062 
	C301.205322,532.034424 301.410706,532.051636 301.453247,532.209229 
z"/>
<path fill="#E9A814" opacity="1.000000" stroke="none" 
	d="
M258.592529,299.001862 
	C258.392487,298.616425 258.192413,298.230988 257.962189,297.160767 
	C257.213135,295.345551 256.494263,294.215118 255.775375,293.084686 
	C255.775375,293.084686 255.906082,293.065613 255.829193,292.864929 
	C255.462814,292.458008 255.173340,292.251831 254.883865,292.045624 
	C254.883865,292.045624 254.947113,292.069244 254.920380,292.091370 
	C255.713516,290.796356 256.533417,289.479248 257.353302,288.162140 
	C259.227509,289.613770 261.655670,290.714233 262.849396,292.597260 
	C264.763092,295.615997 265.859222,299.153015 267.545074,302.691956 
	C267.859955,304.323120 267.930664,305.733337 268.013062,307.563873 
	C266.574524,308.971954 265.124298,309.959717 263.331909,310.986877 
	C262.989746,311.026245 262.990540,311.005157 262.990417,310.672363 
	C262.693970,309.550415 262.397644,308.761261 262.071747,307.645935 
	C262.026764,306.883270 262.011322,306.446777 261.959869,305.651703 
	C260.813416,303.196014 259.702972,301.098938 258.592529,299.001862 
z"/>
<path fill="#EAA91A" opacity="1.000000" stroke="none" 
	d="
M276.799652,564.781494 
	C277.529114,562.111267 278.274780,559.449829 278.969238,556.351807 
	C278.917969,555.915344 278.921631,555.935974 279.245117,556.106079 
	C280.063568,558.834412 280.558533,561.392639 281.038544,563.957397 
	C281.023621,563.963928 281.041656,563.950989 281.163757,564.227783 
	C281.852295,564.661865 282.418732,564.819153 282.985199,564.976501 
	C283.067993,565.796082 283.150818,566.615601 283.117188,567.708801 
	C281.578644,568.746338 280.156494,569.510315 278.363068,570.473694 
	C277.506653,569.122192 276.750519,567.928833 276.224243,566.221497 
	C276.716766,565.460876 276.830719,565.158325 276.795990,564.799683 
	C276.795990,564.799683 276.815857,564.790222 276.799652,564.781494 
z"/>
<path fill="#E8B748" opacity="1.000000" stroke="none" 
	d="
M276.550201,564.908325 
	C276.830719,565.158325 276.716766,565.460876 276.255249,565.858276 
	C276.139069,565.678345 276.221741,565.347595 276.550201,564.908325 
z"/>
<path fill="#E8B748" opacity="1.000000" stroke="none" 
	d="
M281.053467,563.950928 
	C280.558533,561.392639 280.063568,558.834412 279.244781,556.094360 
	C279.046326,555.014954 279.171722,554.117432 279.510437,552.947876 
	C280.617798,553.330383 281.511810,553.984802 282.648865,555.124756 
	C282.894897,556.050476 282.897888,556.490784 282.900879,556.931091 
	C282.900848,556.931091 282.914124,556.990784 282.665283,557.229370 
	C281.962097,559.628967 281.507782,561.789917 281.053467,563.950928 
z"/>
<path fill="#E1A51A" opacity="1.000000" stroke="none" 
	d="
M247.016296,282.998901 
	C247.016296,282.998901 247.503937,282.991699 247.747650,282.987732 
	C247.964294,283.202454 247.937225,283.421143 247.820190,283.960236 
	C247.730225,284.280609 247.299973,284.185822 247.154724,283.807983 
	C247.009460,283.430115 247.016296,282.998901 247.016296,282.998901 
z"/>
<path fill="#FEF3CB" opacity="1.000000" stroke="none" 
	d="
M281.038544,563.957397 
	C281.507782,561.789917 281.962097,559.628967 282.671387,557.200745 
	C283.397522,558.590332 283.868683,560.247192 284.718567,562.005310 
	C284.572418,562.673584 284.047516,563.240540 282.941162,563.904602 
	C281.920349,563.984802 281.480988,563.967896 281.041656,563.950989 
	C281.041656,563.950989 281.023621,563.963928 281.038544,563.957397 
z"/>
<path fill="#E8B748" opacity="1.000000" stroke="none" 
	d="
M281.163757,564.227783 
	C281.480988,563.967896 281.920349,563.984802 282.686218,564.049561 
	C283.012787,564.097473 283.000275,564.537292 282.992737,564.756897 
	C282.418732,564.819153 281.852295,564.661865 281.163757,564.227783 
z"/>
<path fill="#FEF3CB" opacity="1.000000" stroke="none" 
	d="
M285.357025,562.088684 
	C285.498169,561.749939 285.932648,561.378845 286.671509,560.995605 
	C286.534027,561.341064 286.092194,561.698669 285.357025,562.088684 
z"/>
<path fill="#E1A51A" opacity="1.000000" stroke="none" 
	d="
M258.609467,299.338623 
	C259.702972,301.098938 260.813416,303.196014 261.693298,305.651733 
	C261.285156,306.017914 261.107544,306.025482 260.929962,306.033051 
	C260.162109,303.913818 259.394257,301.794617 258.609467,299.338623 
z"/>
<path fill="#E1A51A" opacity="1.000000" stroke="none" 
	d="
M255.801056,293.426361 
	C256.494263,294.215118 257.213135,295.345551 257.933472,296.832275 
	C257.232239,296.048401 256.529480,294.908234 255.801056,293.426361 
z"/>
<path fill="#E1A51A" opacity="1.000000" stroke="none" 
	d="
M262.101318,307.972137 
	C262.397644,308.761261 262.693970,309.550415 262.982697,310.674011 
	C262.709320,311.006805 262.443848,310.996674 261.980530,310.978668 
	C261.644775,310.527222 261.507202,310.075226 261.570465,309.138794 
	C261.913605,308.442596 262.023621,308.215179 262.101318,307.972137 
z"/>
<path fill="#E4A51F" opacity="1.000000" stroke="none" 
	d="
M240.636002,279.441925 
	C241.522766,279.604553 242.600342,280.061920 243.780640,280.881836 
	C242.864502,280.741821 241.845657,280.239227 240.636002,279.441925 
z"/>
<path fill="#E0A82C" opacity="1.000000" stroke="none" 
	d="
M262.071747,307.645935 
	C262.023621,308.215179 261.913605,308.442596 261.635925,308.784912 
	C261.306946,308.203003 261.113403,307.490540 260.924927,306.405548 
	C261.107544,306.025482 261.285156,306.017914 261.729309,306.010315 
	C262.011322,306.446777 262.026764,306.883270 262.071747,307.645935 
z"/>
<path fill="#E4A51F" opacity="1.000000" stroke="none" 
	d="
M246.831818,282.748901 
	C247.016296,282.998901 247.009460,283.430115 247.006180,283.645325 
	C246.372818,283.446320 245.742737,283.032135 244.995056,282.355286 
	C245.467422,282.228027 246.057388,282.363434 246.831818,282.748901 
z"/>
<path fill="#E0A82C" opacity="1.000000" stroke="none" 
	d="
M149.533234,280.321228 
	C149.653854,279.932861 150.074524,279.515778 150.827454,279.132538 
	C150.717575,279.541718 150.275436,279.917084 149.533234,280.321228 
z"/>
<path fill="#E0A82C" opacity="1.000000" stroke="none" 
	d="
M151.429718,279.199799 
	C151.652649,278.841949 152.220001,278.476868 153.158173,278.148132 
	C152.944061,278.520538 152.359116,278.856537 151.429718,279.199799 
z"/>
<path fill="#E4A51F" opacity="1.000000" stroke="none" 
	d="
M243.890289,281.383301 
	C244.112076,281.289459 244.425385,281.455658 244.843201,281.875061 
	C244.625763,281.966583 244.303787,281.804993 243.890289,281.383301 
z"/>
<path fill="#E0A82C" opacity="1.000000" stroke="none" 
	d="
M148.317657,281.073730 
	C148.269485,280.837555 148.488602,280.560974 148.983551,280.268982 
	C149.034561,280.513458 148.809769,280.773407 148.317657,281.073730 
z"/>
<path fill="#E1A51A" opacity="1.000000" stroke="none" 
	d="
M254.948303,292.316467 
	C255.173340,292.251831 255.462814,292.458008 255.821442,292.930481 
	C255.597961,292.993622 255.305359,292.790497 254.948303,292.316467 
z"/>
<path fill="#ECAA0A" opacity="1.000000" stroke="none" 
	d="
M197.339905,441.200439 
	C198.160187,444.168365 198.770706,447.124115 198.949585,450.105713 
	C199.157745,453.575348 199.226822,457.093597 198.852890,460.536072 
	C198.721725,461.743469 197.099274,462.788879 196.157776,463.908264 
	C195.439423,462.687347 194.158875,461.491974 194.102036,460.240997 
	C193.880173,455.357300 193.824158,450.439056 194.197968,445.571381 
	C194.314575,444.052917 195.981857,442.653564 197.339905,441.200439 
z"/>
<path fill="#FEF3CB" opacity="1.000000" stroke="none" 
	d="
M283.291656,556.877441 
	C282.897888,556.490784 282.894897,556.050476 282.851196,555.281616 
	C283.247192,552.566345 283.683868,550.179688 284.094330,547.380554 
	C285.628967,548.986267 285.456024,553.405640 283.291656,556.877441 
z"/>
<path fill="#FEF3CB" opacity="1.000000" stroke="none" 
	d="
M297.820221,556.737610 
	C297.414124,556.854309 296.829742,556.704163 296.031555,556.334595 
	C296.425812,556.233704 297.033875,556.352234 297.820221,556.737610 
z"/>
<path fill="#FEF3CB" opacity="1.000000" stroke="none" 
	d="
M289.861267,559.094238 
	C289.890076,559.292908 289.675446,559.542114 289.208374,559.825195 
	C289.080811,559.532349 289.301453,559.294189 289.861267,559.094238 
z"/>
<path fill="#FEF3CB" opacity="1.000000" stroke="none" 
	d="
M300.883392,558.778564 
	C300.684753,558.862488 300.383209,558.700195 299.966339,558.305176 
	C300.160858,558.225708 300.470673,558.379028 300.883392,558.778564 
z"/>
<path fill="#FEF3CB" opacity="1.000000" stroke="none" 
	d="
M298.885803,557.495605 
	C299.002686,557.673279 298.550690,557.677917 298.550690,557.677917 
	C298.550690,557.677917 298.183563,557.414246 298.089417,557.208252 
	C298.295258,557.004333 298.553131,557.109558 298.885803,557.495605 
z"/>
<path fill="#FEF3CB" opacity="1.000000" stroke="none" 
	d="
M292.956360,557.136719 
	C292.984955,557.360901 292.747406,557.617798 292.242554,557.902832 
	C292.213562,557.677063 292.451874,557.423279 292.956360,557.136719 
z"/>
<path fill="#FEF3CB" opacity="1.000000" stroke="none" 
	d="
M282.904114,545.747498 
	C282.715790,545.821716 282.421295,545.664856 282.029602,545.267944 
	C282.220947,545.190735 282.509399,545.353577 282.904114,545.747498 
z"/>
<path fill="#FEF3CB" opacity="1.000000" stroke="none" 
	d="
M295.004395,556.141113 
	C295.012054,556.359741 294.761230,556.582703 294.251099,556.806885 
	C294.243134,556.587219 294.494537,556.366272 295.004395,556.141113 
z"/>
</svg>